<svg width="314" height="273" viewBox="0 0 314 273" fill="none" xmlns="http://www.w3.org/2000/svg">
<path d="M178.779 38.1535H213.601L225.791 59.3764H269.907L235.43 0.347186H156.952L117.713 68.3107L93.0623 68.3076L114.89 106.117L126.835 125.337C133.699 112.636 142.348 98.7344 148.616 88.9816L178.779 38.1535Z" fill="#085C2C"/>
<path d="M280.023 195.646L313.904 136.272L274.665 68.3074L196.191 68.3106L183.865 46.9605L162.24 84.4137C165.757 89.9001 170.644 97.6614 175.704 106.115L252.838 106.117L270.245 136.272L257.965 157.439L280.023 195.646Z" fill="#085C2C"/>
<path d="M231.01 204.232L213.598 234.389L189.127 234.338L167.067 272.539L235.426 272.196L274.665 204.232L235.426 136.272L247.754 114.921L180.883 114.923C186.16 124.082 191.173 133.403 194.545 141.074L231.01 204.232Z" fill="#085C2C"/>
<path d="M157.138 196.258L135.125 234.387H100.303L88.1119 213.17L43.9958 213.167L78.4752 272.196H156.952L196.191 204.232L220.842 204.235L197.428 163.974C193.244 182.401 176.812 196.173 157.138 196.258Z" fill="#085C2C"/>
<path d="M117.113 166.425H61.0654L43.6571 136.271L55.9392 115.104L33.882 76.8961L0 136.271L39.2372 204.233L117.715 204.235L130.039 225.583L147.188 195.097C132.749 191.615 121.259 180.592 117.113 166.425Z" fill="#085C2C"/>
<path d="M116.388 148.734C117.348 145.118 119.222 140.539 121.657 135.449L82.8946 68.3105L100.304 38.1533L124.779 38.2057L146.837 0.000111497L78.4755 0.347686L39.2383 68.3074L78.4755 136.272L66.1489 157.622H115.545C115.48 156.671 115.436 155.714 115.436 154.747C115.436 152.588 115.995 150.204 116.388 148.734Z" fill="#085C2C"/>
</svg>
