<svg width="35" height="29" viewBox="0 0 35 29" fill="none" xmlns="http://www.w3.org/2000/svg">
<path fill-rule="evenodd" clip-rule="evenodd" d="M32.7072 0.947213C32.4784 0.526702 32.0334 0.269744 31.5546 0.281908C27.7595 0.378244 19.2058 2.54967 14.3727 10.4863C9.14728 7.18847 3.46138 7.65562 1.37411 8.26149C0.954707 8.38312 0.626768 8.71104 0.505009 9.13051C-0.290787 11.8709 -0.755073 18.5347 3.9908 23.2796C6.23195 25.5203 8.54764 26.4255 10.6479 26.4609C12.2989 26.4887 13.7404 25.9769 14.819 25.2681C15.5168 26.0035 16.2547 26.567 16.9219 26.952C18.4743 27.8481 21.0544 28.5924 23.8979 28.0205C26.7985 27.437 29.8152 25.5159 32.2185 21.3542C37.0011 13.0722 34.553 4.33973 32.7072 0.947213ZM13.2979 23.2136C12.9921 22.6727 12.723 22.0832 12.5083 21.446C11.7061 19.0661 11.6971 16.1319 13.1831 12.7532C9.20268 10.1625 4.85 10.1915 2.78237 10.5536C2.26753 13.1344 2.32851 18.0114 5.79426 21.4766C7.63753 23.3194 9.34474 23.8885 10.6909 23.9112C11.7318 23.9288 12.6315 23.6216 13.2979 23.2136ZM16.3309 12.1833C20.2178 5.4527 27.1895 3.23777 30.8216 2.88193C32.3292 6.20458 33.8967 13.3486 30.0098 20.0792C27.9243 23.6907 25.4876 25.0995 23.3949 25.5205C22.3242 25.736 21.3023 25.701 20.4109 25.5333L27.3137 12.881C27.6509 12.2629 27.4231 11.4884 26.8046 11.1513C26.1864 10.814 25.4118 11.0419 25.0747 11.66L21.4642 18.2779L21.0273 16.9675C20.8047 16.2994 20.0824 15.9383 19.4142 16.1612C18.7459 16.3838 18.3851 17.106 18.6077 17.7738L19.7955 21.3363L18.0012 24.625C16.9315 23.9452 15.5846 22.5876 14.9251 20.6315C14.2434 18.6091 14.2454 15.7948 16.3309 12.1833Z" fill="#085C2C"/>
</svg>
